<svg xmlns="http://www.w3.org/2000/svg" width="167" height="36" viewBox="0 0 167 36">
    <g fill="#1392E0" fill-rule="evenodd">
        <g opacity=".2">
            <path d="M50.278 28.206l-24.737 7.34-24.737-7.34 24.737-7.34z"/>
            <path d="M50.278 22.995l-24.737 7.34-24.737-7.34 24.737-7.34z"/>
            <path d="M50.278 17.783l-24.737 7.34-24.737-7.34 24.737-7.34z"/>
            <path d="M50.278 12.572l-24.737 7.34-24.737-7.34 24.737-7.34z"/>
            <path d="M50.278 7.36L25.54 14.7.804 7.36 25.541.02z"/>
        </g>
        <path d="M30.201 23.06c3.33 0 5.501-2.298 5.501-5.352 0-3.038-2.171-5.368-5.5-5.368h-3.668v10.72h3.667zm0-1.19H27.87v-8.34h2.332c2.654 0 4.118 1.864 4.118 4.178 0 2.298-1.512 4.163-4.118 4.163zm8.139-7.682a.81.81 0 0 0 .82-.803c0-.45-.37-.82-.82-.82a.82.82 0 0 0-.804.82c0 .45.37.803.804.803zm.611 8.872v-7.763h-1.206v7.763h1.206zm5.533 3.15c1.898 0 3.7-.803 3.7-3.375v-7.538h-1.207v1.173c-.627-.851-1.56-1.366-2.606-1.366-2.042 0-3.458 1.543-3.458 4.034 0 2.508 1.432 4.018 3.458 4.018 1.094 0 2.043-.594 2.606-1.382v1.11c0 1.703-1.206 2.33-2.493 2.33-1.11 0-1.882-.29-2.525-1.061l-.611.9c.916.9 1.817 1.157 3.136 1.157zm.177-4.114c-1.56 0-2.493-1.254-2.493-2.958 0-1.72.933-2.957 2.493-2.957.965 0 1.898.579 2.316 1.254v3.391c-.418.675-1.351 1.27-2.316 1.27zm6.53-7.908a.81.81 0 0 0 .82-.803c0-.45-.37-.82-.82-.82a.82.82 0 0 0-.804.82c0 .45.37.803.804.803zm.611 8.872v-7.763h-1.206v7.763h1.206zm4.375.193c.708 0 1.142-.209 1.448-.498l-.354-.9c-.161.176-.483.321-.82.321-.531 0-.789-.418-.789-.996v-4.822h1.577v-1.06h-1.577v-2.122h-1.206v2.121h-1.287v1.061h1.287v5.079c0 1.157.58 1.816 1.721 1.816zm8.83-.193v-5.336c0-1.88-1.367-2.62-3.008-2.62-1.27 0-2.267.418-3.104 1.286l.563.836c.692-.74 1.448-1.077 2.38-1.077 1.126 0 1.963.595 1.963 1.64v1.398c-.627-.724-1.512-1.061-2.574-1.061-1.318 0-2.718.82-2.718 2.555 0 1.688 1.4 2.572 2.718 2.572 1.046 0 1.93-.37 2.574-1.077v.884h1.206zm-3.345-.675c-1.126 0-1.914-.707-1.914-1.688 0-.996.788-1.703 1.914-1.703.852 0 1.672.321 2.139.964v1.463c-.467.643-1.287.964-2.14.964zm6.964.675V12.34H67.42v10.72h1.206zm6.128 0c3.33 0 5.5-2.298 5.5-5.352 0-3.038-2.17-5.368-5.5-5.368h-3.667v10.72h3.667zm0-1.19h-2.332v-8.34h2.332c2.654 0 4.117 1.864 4.117 4.178 0 2.298-1.511 4.163-4.117 4.163zm13.607 1.19v-5.336c0-1.88-1.367-2.62-3.008-2.62-1.27 0-2.268.418-3.104 1.286l.563.836c.692-.74 1.448-1.077 2.38-1.077 1.126 0 1.963.595 1.963 1.64v1.398c-.628-.724-1.512-1.061-2.574-1.061-1.319 0-2.718.82-2.718 2.555 0 1.688 1.4 2.572 2.718 2.572 1.046 0 1.93-.37 2.574-1.077v.884h1.206zm-3.345-.675c-1.126 0-1.914-.707-1.914-1.688 0-.996.788-1.703 1.914-1.703.852 0 1.672.321 2.139.964v1.463c-.467.643-1.287.964-2.14.964zm7.72.868c.708 0 1.142-.209 1.447-.498l-.353-.9c-.161.176-.483.321-.82.321-.532 0-.789-.418-.789-.996v-4.822h1.576v-1.06h-1.576v-2.122h-1.206v2.121h-1.287v1.061h1.287v5.079c0 1.157.579 1.816 1.72 1.816zm8.83-.193v-5.336c0-1.88-1.367-2.62-3.008-2.62-1.27 0-2.268.418-3.104 1.286l.563.836c.692-.74 1.447-1.077 2.38-1.077 1.126 0 1.963.595 1.963 1.64v1.398c-.628-.724-1.512-1.061-2.574-1.061-1.319 0-2.718.82-2.718 2.555 0 1.688 1.4 2.572 2.718 2.572 1.046 0 1.93-.37 2.574-1.077v.884h1.206zm-3.346-.675c-1.125 0-1.914-.707-1.914-1.688 0-.996.789-1.703 1.914-1.703.853 0 1.673.321 2.14.964v1.463c-.467.643-1.287.964-2.14.964zm16.84.675V12.34h-2.654l-2.927 7.056-2.911-7.056h-2.654v10.72h1.882v-7.956l3.281 7.956h.804l3.297-7.956v7.956h1.882zm8.67 0v-5.143c0-2.09-1.512-2.813-3.233-2.813-1.239 0-2.365.402-3.265 1.254l.691 1.173c.676-.659 1.432-.98 2.3-.98 1.078 0 1.818.546 1.818 1.446v1.158c-.563-.66-1.464-.997-2.51-.997-1.27 0-2.701.74-2.701 2.523 0 1.72 1.431 2.572 2.702 2.572 1.029 0 1.93-.37 2.509-1.029v.836h1.689zm-3.539-.964c-.949 0-1.657-.547-1.657-1.382 0-.852.708-1.399 1.657-1.399.74 0 1.464.273 1.85.804v1.173c-.386.53-1.11.804-1.85.804zm12.658.964v-5.464c0-1.592-.836-2.492-2.509-2.492-1.222 0-2.22.643-2.734 1.254v-1.06h-1.689v7.762h1.689v-5.416c.386-.53 1.126-1.045 1.994-1.045.95 0 1.56.402 1.56 1.607v4.854h1.69zm8.621 0v-5.143c0-2.09-1.512-2.813-3.233-2.813-1.238 0-2.364.402-3.265 1.254l.692 1.173c.675-.659 1.431-.98 2.3-.98 1.077 0 1.817.546 1.817 1.446v1.158c-.563-.66-1.463-.997-2.509-.997-1.27 0-2.702.74-2.702 2.523 0 1.72 1.432 2.572 2.702 2.572 1.03 0 1.93-.37 2.51-1.029v.836h1.688zm-3.538-.964c-.95 0-1.657-.547-1.657-1.382 0-.852.708-1.399 1.657-1.399.74 0 1.463.273 1.85.804v1.173c-.387.53-1.11.804-1.85.804zm8.878 4.114c1.914 0 3.989-.755 3.989-3.552v-7.36h-1.689v1.076c-.627-.82-1.512-1.27-2.493-1.27-1.994 0-3.442 1.479-3.442 3.986 0 2.556 1.464 3.986 3.442 3.986 1.013 0 1.898-.514 2.493-1.286v.933c0 1.59-1.19 2.105-2.3 2.105-1.03 0-1.834-.273-2.46-.996l-.789 1.221c.949.868 1.93 1.157 3.249 1.157zm.306-4.629c-1.335 0-2.188-.996-2.188-2.49 0-1.495.853-2.492 2.188-2.492.788 0 1.624.466 1.994 1.045v2.893c-.37.578-1.206 1.044-1.994 1.044zm9.457 1.672c1.238 0 2.38-.386 3.152-1.125l-.772-1.11c-.546.547-1.447.853-2.203.853-1.464 0-2.348-.965-2.477-2.138h6v-.402c0-2.443-1.497-4.227-3.829-4.227-2.3 0-3.94 1.816-3.94 4.067 0 2.459 1.737 4.082 4.069 4.082zm2.059-4.71h-4.375c.08-.947.74-2.056 2.187-2.056 1.528 0 2.156 1.14 2.188 2.057zm5.002 4.517v-5.288c.338-.546 1.287-1.028 1.994-1.028.21 0 .386.016.531.048V15.12c-1.013 0-1.946.579-2.525 1.318v-1.14h-1.689v7.762h1.689z"/>
    </g>
</svg>
